<svg version="1.2" xmlns="http://www.w3.org/2000/svg" viewBox="0 0 88 25" width="88" height="25">
	<title>cloutech-svg</title>
	<style>
		.s0 { fill: #000000 } 
		.s1 { fill: #e62415 } 
	</style>
	<path id="Layer" fill-rule="evenodd" class="s0" d="m22.9 25h4v-25h-4zm18-8c0 3.9-3.3 4.2-4.2 4.2-2.4 0-2.8-2.3-2.8-3.6v-9.6h-4v9.5c0 2.4 0.7 4.4 2 5.7 1.2 1.1 2.9 1.8 4.8 1.8 1.3 0 3.2-0.5 4.2-1.4v1.4h4v-17h-4zm12-15h-4v6h-3v4h3v13h4v-13h3v-4h-3zm15.6 17.9c-0.9 0.8-2.1 1.2-3.3 1.2-2.8 0-4.9-2-4.9-4.8 0-2.8 2-4.8 4.9-4.8 1.2 0 2.4 0.4 3.3 1.2l0.6 0.5 2.7-2.7-0.7-0.6c-1.6-1.4-3.7-2.2-5.9-2.2-5 0-8.7 3.6-8.7 8.5 0 5 3.8 8.7 8.7 8.7 2.3 0 4.4-0.8 6-2.2l0.6-0.7-2.7-2.6zm17.6-10.5c-1.2-1.1-2.5-1.8-4.4-1.8-1.3 0-2.8 0.4-3.8 1.4v-9.1h-4v25h4v-9.3c0-3.9 2.7-4.2 3.6-4.2 2.4 0 2.4 2.3 2.4 3.6v9.9h4v-9.9c0-2.3-0.5-4.3-1.8-5.6z"/>
	<path id="Layer" class="s1" d="m65 13.4c0.8 0 1.5 0.3 2.1 0.9 0.5 0.5 0.8 1.3 0.8 2 0 0.8-0.3 1.5-0.8 2.1-0.6 0.5-1.3 0.8-2.1 0.8-0.7 0-1.5-0.3-2-0.8-0.5-0.6-0.8-1.3-0.8-2.1 0-0.7 0.3-1.5 0.8-2 0.5-0.6 1.3-0.9 2-0.9z"/>
	<path id="Layer" class="s0" d="m17.3 18.7c-1.6 1.6-3.6 2.4-5.8 2.4-4.5 0-7.7-3.5-7.7-8.3 0-4.8 3.2-8.3 7.7-8.3 2.2 0 4.2 0.9 5.7 2.4l0.6 0.6 2.7-2.7-0.6-0.6c-2.2-2.3-5.2-3.5-8.4-3.5-6.6 0-11.5 5.2-11.5 12.2 0 6.9 5 12.1 11.5 12.1 3.2 0 6.2-1.3 8.5-3.6l0.5-0.6-2.6-2.7z"/>
</svg>