<?xml version="1.0" encoding="UTF-8"?> <!-- Generator: Adobe Illustrator 22.0.1, SVG Export Plug-In . SVG Version: 6.00 Build 0) --> <svg xmlns="http://www.w3.org/2000/svg" xmlns:xlink="http://www.w3.org/1999/xlink" version="1.1" id="Layer_1" x="0px" y="0px" viewBox="0 0 668.5 301" style="enable-background:new 0 0 668.5 301;" xml:space="preserve"> <style type="text/css"> .st0{fill:#FFFFFF;} .st1{fill:#777677;} .st2{fill:none;} .st3{fill:#487CBF;} .st4{fill:#EF372C;} .st5{fill:#00AC4E;} .st6{fill:#FDB614;} </style> <rect class="st0" width="668.5" height="301"></rect> <g> <g> <path class="st1" d="M160.2,208.5v45.9h-14.5V141.1h38.6c9.8,0,18.1,3.3,25,9.8c7,6.5,10.4,14.5,10.4,23.9c0,9.6-3.5,17.6-10.4,24 c-6.7,6.4-15.1,9.6-25,9.6H160.2z M160.2,155v39.5h24.4c5.8,0,10.6-1.9,14.4-5.9c3.9-3.9,5.9-8.5,5.9-13.9c0-5.3-2-9.9-5.9-13.8 c-3.8-4-8.6-6-14.4-6H160.2z"></path> <path class="st1" d="M258.5,174.3c10.8,0,19.2,2.9,25.5,8.6c6.2,5.7,9.3,13.6,9.3,23.6v47.8h-13.9v-10.8h-0.6 c-6,8.9-14,13.3-24,13.3c-8.5,0-15.7-2.5-21.4-7.6c-5.7-5.1-8.6-11.4-8.6-19c0-8,3-14.4,9.1-19.1c6.1-4.7,14.2-7.1,24.3-7.1 c8.6,0,15.8,1.6,21.3,4.7v-3.3c0-5.1-2-9.4-6-12.9c-4-3.5-8.7-5.3-14.1-5.3c-8.1,0-14.5,3.4-19.3,10.3l-12.8-8.1 C234.3,179.4,244.7,174.3,258.5,174.3z M239.7,230.6c0,3.8,1.6,7,4.8,9.5c3.2,2.5,7,3.8,11.3,3.8c6.1,0,11.6-2.3,16.4-6.8 c4.8-4.5,7.2-9.9,7.2-16c-4.5-3.6-10.9-5.4-19-5.4c-5.9,0-10.8,1.4-14.8,4.3C241.7,222.9,239.7,226.4,239.7,230.6z"></path> <path class="st1" d="M309.8,176.8h13.9v12.7h0.6c4.3-9.9,13.2-14.9,26.7-14.9l3,0.3v15.2l-6.5-0.6c-6.7,0-12.3,2.1-16.7,6.2 c-4.4,4.2-6.6,9.5-6.6,15.9v42.7h-14.5V176.8z M400.5,255.6c-6.3,0-11.6-1.9-15.7-5.9c-4.2-3.9-6.3-9.3-6.4-16.3v-43.3h-13.6 v-13.3h13.6v-23.7H393v23.7h19v13.3h-19v38.6c0,5.2,1,8.7,3,10.5c2,1.8,4.3,2.8,6.8,2.8c1.2,0,2.3-0.1,3.4-0.4 c1.1-0.3,2.1-0.6,3.1-1l4.6,13C410,254.9,405.6,255.6,400.5,255.6z"></path> <path class="st1" d="M426.6,176.8h13.9v10.8h0.6c2.2-3.8,5.6-7,10.2-9.5c4.6-2.5,9.4-3.8,14.3-3.8c9.5,0,16.8,2.7,21.9,8.1 c5.1,5.4,7.7,13.2,7.7,23.2v48.7h-14.5v-47.8c-0.3-12.7-6.7-19-19.1-19c-5.8,0-10.7,2.3-14.5,7c-3.9,4.7-5.9,10.3-5.9,16.8v42.9 h-14.5V176.8z"></path> <path class="st1" d="M547.1,256.9c-11.4,0-20.8-3.9-28.1-11.7c-7.4-7.8-11.1-17.7-11.1-29.6c0-11.8,3.6-21.6,10.8-29.5 c7.2-7.9,16.3-11.8,27.5-11.8c11.5,0,20.6,3.7,27.4,11.1c6.8,7.4,10.2,17.8,10.2,31.2l-0.2,1.6h-60.9c0.2,7.6,2.7,13.7,7.6,18.3 c4.8,4.6,10.6,7,17.4,7c9.3,0,16.6-4.6,21.8-13.9l13,6.3c-3.5,6.5-8.3,11.6-14.5,15.3C561.9,255,554.9,256.9,547.1,256.9z M523.9,206.3h44.4c-0.4-5.4-2.6-9.8-6.6-13.4c-4-3.5-9.3-5.3-15.9-5.3c-5.5,0-10.2,1.7-14.2,5.1 C527.8,196,525.2,200.6,523.9,206.3z"></path> <path class="st1" d="M611.7,254.3h-14.5v-77.5H611v12.7h0.6c1.5-4.1,4.5-7.6,9.1-10.5c4.6-2.9,9.1-4.3,13.5-4.3 c4.2,0,7.8,0.6,10.8,1.9l-4.4,14.1c-1.8-0.7-4.6-1.1-8.5-1.1c-5.5,0-10.3,2.2-14.3,6.6c-4.1,4.4-6.1,9.6-6.1,15.5V254.3z"></path> </g> <g> <path class="st2" d="M239.3,77c-3.7,0-6.8,1.4-9.3,4.1c-2.5,2.6-3.8,5.9-3.8,10.1c0,4,1.3,7.4,3.8,10.1c2.5,2.7,5.6,4.1,9.3,4.1 c3.6,0,6.7-1.4,9.3-4.1c2.6-2.8,3.9-6.1,3.9-10.1c0-4.1-1.3-7.5-3.8-10.1C246.1,78.3,243,77,239.3,77z"></path> <path class="st2" d="M341,77c-3.5,0-6.6,1.4-9.2,4.1c-2.5,2.7-3.8,6.1-3.8,10.1c0,3.9,1.2,7.3,3.7,10c2.5,2.7,5.6,4.1,9.3,4.1 c3.5,0,6.4-1.3,8.8-4c2.4-2.8,3.6-6.1,3.6-10.1c0-4-1.2-7.4-3.6-10.1C347.5,78.3,344.6,77,341,77z"></path> <path class="st2" d="M290.2,77c-3.7,0-6.8,1.4-9.3,4.1c-2.5,2.6-3.8,5.9-3.8,10.1c0,4,1.3,7.4,3.8,10.1c2.5,2.7,5.6,4.1,9.3,4.1 c3.6,0,6.7-1.4,9.3-4.1c2.6-2.8,3.9-6.1,3.9-10.1c0-4.1-1.3-7.5-3.8-10.1C297.1,78.3,293.9,77,290.2,77z"></path> <path class="st2" d="M412.4,78.1c-1.6-0.9-3.4-1.4-5.4-1.4c-3.2,0-6.1,1.3-8.6,3.9c-2.5,2.5-3.6,5.8-3.5,9.7l20.8-8.6 C415.1,80.3,414,79.1,412.4,78.1z"></path> <path class="st3" d="M178.6,74.9v9.9h23.6c-0.8,6.2-3.4,11.1-7.8,14.6c-4.3,3.4-9.6,5.1-15.9,5.1c-7.3,0-13.4-2.6-18.4-7.7 c-5-5.1-7.5-11.3-7.5-18.6c0-7.3,2.5-13.6,7.5-18.6c5-5.1,11.1-7.7,18.4-7.7c6.8,0,12.8,2.4,17.8,7.1l7-7c-7-6.6-15.3-10-24.8-10 c-6.5,0-12.6,1.6-18.3,4.9c-5.7,3.2-10.2,7.7-13.5,13.3c-3.2,5.5-4.9,11.5-4.9,17.9c0,6.5,1.6,12.5,4.9,18 c3.2,5.6,7.7,10,13.5,13.2c5.8,3.3,11.9,4.9,18.3,4.9c9.8,0,17.8-3.1,24.3-9.2c6.4-6.1,9.5-14.1,9.5-24.1c0-2.4-0.2-4.4-0.5-6.2 H178.6z"></path> <path class="st4" d="M239.3,67.8c-6.6,0-12.2,2.2-16.7,6.7c-4.5,4.4-6.7,9.9-6.7,16.6c0,6.5,2.3,12.1,6.8,16.6 c4.5,4.5,10,6.7,16.6,6.7c6.6,0,12.1-2.2,16.6-6.7c4.5-4.5,6.8-10.1,6.8-16.6c0-6.6-2.3-12.2-6.8-16.6 C251.4,70,245.9,67.8,239.3,67.8z M248.5,101.1c-2.5,2.7-5.6,4.1-9.3,4.1c-3.7,0-6.8-1.4-9.3-4.1c-2.5-2.7-3.8-6.1-3.8-10.1 c0-4.1,1.3-7.5,3.8-10.1c2.5-2.7,5.6-4.1,9.3-4.1c3.7,0,6.8,1.4,9.3,4.1c2.5,2.6,3.8,5.9,3.8,10.1 C252.4,95,251.1,98.4,248.5,101.1z"></path> <rect x="369.5" y="44.5" class="st5" width="10.2" height="68.4"></rect> <path class="st6" d="M290.2,67.8c-6.6,0-12.2,2.2-16.7,6.7c-4.5,4.4-6.7,9.9-6.7,16.6c0,6.5,2.3,12.1,6.8,16.6 c4.5,4.5,10,6.7,16.6,6.7c6.6,0,12.1-2.2,16.6-6.7c4.5-4.5,6.8-10.1,6.8-16.6c0-6.6-2.3-12.2-6.8-16.6 C302.4,70,296.8,67.8,290.2,67.8z M299.5,101.1c-2.5,2.7-5.6,4.1-9.3,4.1c-3.7,0-6.8-1.4-9.3-4.1c-2.5-2.7-3.8-6.1-3.8-10.1 c0-4.1,1.3-7.5,3.8-10.1c2.5-2.7,5.6-4.1,9.3-4.1c3.7,0,6.8,1.4,9.3,4.1c2.5,2.6,3.8,5.9,3.8,10.1 C303.4,95,302.1,98.4,299.5,101.1z"></path> <path class="st4" d="M407.8,105.2c-5.1,0-8.9-2.4-11.3-7.1l31.1-12.9l-1.1-2.6c-0.8-2.2-1.9-4.2-3.2-6c-1.3-1.8-2.8-3.4-4.5-4.7 c-1.7-1.3-3.6-2.3-5.6-3c-2.1-0.7-4.2-1.1-6.5-1.1c-6.2,0-11.5,2.2-15.7,6.6c-4.2,4.5-6.3,10-6.3,16.7c0,6.6,2.2,12.1,6.6,16.6 c4.4,4.5,9.9,6.7,16.5,6.7c8.2,0,14.7-3.4,19.4-10.3l-7.9-5.3C416.4,103,412.6,105.2,407.8,105.2z M398.4,80.7 c2.6-2.6,5.5-3.9,8.6-3.9c2,0,3.8,0.5,5.4,1.4c1.6,0.9,2.7,2.1,3.3,3.6l-20.8,8.6C394.7,86.4,395.9,83.2,398.4,80.7z"></path> <path class="st3" d="M352.8,73h-0.4c-2.9-3.5-7-5.2-12.3-5.2c-6,0-11.2,2.3-15.7,6.9c-4.4,4.6-6.6,10.1-6.6,16.5 c0,6.4,2.2,11.8,6.6,16.4c4.5,4.5,9.8,6.8,15.7,6.8c5.2,0,9.3-1.8,12.3-5.3h0.4v2.4c0,9.8-4.1,14.6-12.4,14.6 c-2.6,0-5-0.8-7.1-2.3c-2.1-1.5-3.6-3.5-4.7-6l-8.9,3.7c0.9,2.1,2,3.9,3.4,5.6c1.4,1.7,2.9,3.1,4.7,4.3c1.8,1.2,3.7,2.1,5.9,2.8 c2.1,0.7,4.4,1,6.7,1c6.9,0,12.4-2.1,16.3-6.3c3.9-4.2,5.9-10.2,5.9-17.9V69.2h-9.7V73z M349.9,101.2c-2.4,2.6-5.4,4-8.8,4 c-3.6,0-6.7-1.4-9.3-4.1c-2.5-2.7-3.7-6-3.7-10c0-4,1.3-7.3,3.8-10.1c2.6-2.8,5.6-4.1,9.2-4.1c3.5,0,6.5,1.4,8.8,4.1 c2.4,2.8,3.6,6.1,3.6,10.1C353.5,95.1,352.3,98.4,349.9,101.2z"></path> </g> </g> <rect x="19.1" y="9.5" class="st3" width="74.2" height="282"></rect> </svg> 